HIERARCHY
ROOT joint_Root
{
	OFFSET 0.0 0.0 0.0
	CHANNELS 6 Xposition Yposition Zposition Zrotation Xrotation Yrotation 
	JOINT Hips
	{
		OFFSET -0.726466 93.3139 -2.00062
		CHANNELS 6 Xposition Yposition Zposition Zrotation Xrotation Yrotation 
		JOINT Spine
		{
			OFFSET 15.7357 0.0 0.0
			CHANNELS 6 Xposition Yposition Zposition Zrotation Xrotation Yrotation 
			JOINT Chest
			{
				OFFSET 8.98455 -0.406207 0.0
				CHANNELS 6 Xposition Yposition Zposition Zrotation Xrotation Yrotation 
				JOINT Neck
				{
					OFFSET 16.3773 0.0 0.0
					CHANNELS 6 Xposition Yposition Zposition Zrotation Xrotation Yrotation 
					JOINT Head
					{
						OFFSET 6.45672 0.0 0.0
						CHANNELS 6 Xposition Yposition Zposition Zrotation Xrotation Yrotation 
						End Site
						{
							OFFSET 0.0 0.0 0.0
						}
					}
				}
				JOINT Shoulder_L
				{
					OFFSET 12.9942 -0.242716 4.98039
					CHANNELS 6 Xposition Yposition Zposition Zrotation Xrotation Yrotation 
					JOINT UpperArm_L
					{
						OFFSET 5.34809 0.0 0.0
						CHANNELS 6 Xposition Yposition Zposition Zrotation Xrotation Yrotation 
						JOINT LowerArm_L
						{
							OFFSET 24.3286 1.87007e-05 0.0
							CHANNELS 6 Xposition Yposition Zposition Zrotation Xrotation Yrotation 
							JOINT Hand_L
							{
								OFFSET 22.2916 0.0 0.0
								CHANNELS 6 Xposition Yposition Zposition Zrotation Xrotation Yrotation 
								End Site
								{
									OFFSET 0.0 0.0 0.0
								}
							}
						}
					}
				}
				JOINT Shoulder_R
				{
					OFFSET 12.9945 -0.242716 -4.98039
					CHANNELS 6 Xposition Yposition Zposition Zrotation Xrotation Yrotation 
					JOINT UpperArm_R
					{
						OFFSET -5.34813 0.0 0.0
						CHANNELS 6 Xposition Yposition Zposition Zrotation Xrotation Yrotation 
						JOINT LowerArm_R
						{
							OFFSET -24.3289 0.000322201 0.0
							CHANNELS 6 Xposition Yposition Zposition Zrotation Xrotation Yrotation 
							JOINT Hand_R
							{
								OFFSET -22.2915 -0.000108084 0.0
								CHANNELS 6 Xposition Yposition Zposition Zrotation Xrotation Yrotation 
								End Site
								{
									OFFSET 0.0 0.0 0.0
								}
							}
						}
					}
				}
			}
		}
		JOINT UpperLeg_L
		{
			OFFSET -2.19248 -6.46944 0.0
			CHANNELS 6 Xposition Yposition Zposition Zrotation Xrotation Yrotation 
			JOINT LowerLeg_L
			{
				OFFSET 39.0811 0.0 -1.23785e-05
				CHANNELS 6 Xposition Yposition Zposition Zrotation Xrotation Yrotation 
				JOINT Foot_L
				{
					OFFSET 40.9854 0.0 -1.26872e-05
					CHANNELS 6 Xposition Yposition Zposition Zrotation Xrotation Yrotation 
					JOINT Toes_L
					{
						OFFSET 11.7543 0.0 0.0
						CHANNELS 6 Xposition Yposition Zposition Zrotation Xrotation Yrotation 
						End Site
						{
							OFFSET 0.0 0.0 0.0
						}
					}
				}
			}
		}
		JOINT UpperLeg_R
		{
			OFFSET -2.19251 6.46944 0.0
			CHANNELS 6 Xposition Yposition Zposition Zrotation Xrotation Yrotation 
			JOINT LowerLeg_R
			{
				OFFSET -39.0811 -0.00228153 -0.0401928
				CHANNELS 6 Xposition Yposition Zposition Zrotation Xrotation Yrotation 
				JOINT Foot_R
				{
					OFFSET -40.9854 0.0 0.0
					CHANNELS 6 Xposition Yposition Zposition Zrotation Xrotation Yrotation 
					JOINT Toes_R
					{
						OFFSET -11.7543 0.0 0.0
						CHANNELS 6 Xposition Yposition Zposition Zrotation Xrotation Yrotation 
						End Site
						{
							OFFSET 0.0 0.0 0.0
						}
					}
				}
			}
		}
	}
}
MOTION
Frames:	4
Frame Time:	0.0333333
0.000000 0.000000 0.000000 0.000000 0.000000 -0.000000 -0.057603 92.255400 -0.135253 88.001600 -1.654300 4.600900 15.735700 0.000005 -0.000001 83.279400 85.517400 -82.324600 8.984550 -0.406207 -0.000000 1.147660 -1.103840 1.919190 16.377300 -0.000001 -0.000001 3.025280 -1.490120 -0.756635 6.456720 -0.000001 -0.000000 6.980370 -1.749430 -2.946880 12.994200 -0.242716 4.980390 -90.046200 0.145761 -72.400800 5.348090 -0.000007 -0.000001 -68.581800 37.682800 -13.876900 24.328600 0.000019 0.000005 2.635560 6.201960 -23.077700 22.291600 -0.000001 0.000005 3.859990 5.479830 -5.741540 12.994500 -0.242716 -4.980390 88.313100 5.353320 -72.480700 -5.348130 -0.000001 -0.000004 -65.678000 40.513900 -15.621200 -24.328900 0.000322 -0.000009 2.169170 7.548650 -16.091200 -22.291500 -0.000108 -0.000004 9.284840 5.397740 -2.864150 -2.192480 -6.469440 -0.000000 -175.493000 -8.846640 -1.675420 39.081100 -0.000007 -0.000012 -0.104616 0.246182 23.023200 40.985400 -0.000006 -0.000013 0.257636 3.841900 -66.864000 11.754300 -0.000000 0.000003 -0.000036 -0.000427 -16.594200 -2.192510 6.469440 -0.000001 179.325000 13.487100 -179.103000 -39.081100 -0.002282 -0.040193 -0.053546 0.162062 19.336100 -40.985400 0.000008 0.000006 2.911570 8.641090 -66.006100 -11.754300 -0.000006 -0.000006 -0.008969 -0.095769 -20.473900
0.000000 0.000000 0.000000 0.000000 0.000000 -0.000000 -0.071026 92.250200 -0.161353 88.000600 -1.697060 4.602540 15.735700 0.000005 -0.000001 83.596900 85.523400 -82.586600 8.984550 -0.406207 -0.000000 1.141740 -1.056440 2.029450 16.377300 -0.000001 -0.000001 3.029500 -1.433850 -0.783334 6.456720 -0.000001 -0.000000 7.026870 -1.670980 -3.186030 12.994200 -0.242716 4.980390 -90.207900 0.647827 -72.210300 5.348090 -0.000007 -0.000001 -67.531100 34.812700 -14.403400 24.328600 0.000019 0.000005 4.100040 8.841150 -25.003400 22.291600 -0.000001 0.000005 1.732250 5.437490 -4.197680 12.994500 -0.242716 -4.980390 88.349100 5.224770 -72.437100 -5.348130 -0.000001 -0.000004 -65.926600 40.310100 -15.541600 -24.328900 0.000322 -0.000009 2.156950 7.547040 -16.008400 -22.291500 -0.000108 -0.000004 9.281440 5.397580 -2.858980 -2.192480 -6.469440 -0.000000 -175.489000 -8.759900 -1.690130 39.081100 -0.000007 -0.000012 -0.106889 0.251124 23.056800 40.985400 -0.000006 -0.000013 0.232189 3.782690 -66.879900 11.754300 -0.000000 0.000003 -0.000042 -0.000484 -16.596400 -2.192510 6.469440 -0.000001 179.326000 13.449000 -179.142000 -39.081100 -0.002282 -0.040193 -0.056381 0.169821 19.370200 -40.985400 0.000008 0.000006 2.788480 8.675300 -65.978300 -11.754300 -0.000006 -0.000006 -0.008639 -0.093173 -20.367800
0.000000 0.000000 0.000000 0.000000 0.000000 -0.000000 -0.098582 92.252400 -0.211034 88.013700 -1.710670 4.609380 15.735700 0.000005 -0.000001 84.472500 85.541500 -83.404500 8.984550 -0.406207 -0.000000 1.119160 -0.920476 2.143210 16.377300 -0.000001 -0.000001 3.131650 -1.368940 -0.887956 6.456720 -0.000001 -0.000000 7.061580 -1.689710 -3.398040 12.994200 -0.242716 4.980390 -90.381800 1.179150 -72.058200 5.348090 -0.000007 -0.000001 -65.531500 30.598800 -15.724700 24.328600 0.000019 0.000005 4.839820 9.160540 -28.006400 22.291600 -0.000001 0.000005 0.457480 5.413830 -3.392210 12.994500 -0.242716 -4.980390 88.402200 5.063590 -72.461700 -5.348130 -0.000001 -0.000004 -66.299700 40.020500 -15.266200 -24.328900 0.000322 -0.000009 2.146270 7.519530 -15.988100 -22.291500 -0.000108 -0.000004 9.286400 5.398380 -2.884950 -2.192480 -6.469440 -0.000000 -175.492000 -8.822720 -1.742780 39.081100 -0.000007 -0.000012 -0.104433 0.245128 23.075700 40.985400 -0.000006 -0.000013 0.218369 3.766240 -66.834900 11.754300 -0.000000 0.000003 -0.000047 -0.000535 -16.598300 -2.192510 6.469440 -0.000001 179.336000 13.451700 -179.189000 -39.081100 -0.002282 -0.040193 -0.057908 0.173874 19.400100 -40.985400 0.000008 0.000006 2.780010 8.675930 -65.954400 -11.754300 -0.000006 -0.000006 -0.008726 -0.093856 -20.395800
0.000000 0.000000 0.000000 0.000000 0.000000 -0.000000 -0.158331 92.257300 -0.294182 87.998000 -1.542930 4.620220 15.735700 0.000005 -0.000001 85.143800 85.568700 -84.008900 8.984550 -0.406207 -0.000000 1.074020 -0.816210 2.275610 16.377300 -0.000001 -0.000001 3.238330 -1.357650 -1.053230 6.456720 -0.000001 -0.000000 7.151020 -1.849640 -3.491510 12.994200 -0.242716 4.980390 -90.469200 1.430230 -71.836900 5.348090 -0.000007 -0.000001 -63.243300 25.381600 -17.739000 24.328600 0.000019 0.000005 4.749720 7.492470 -32.505200 22.291600 -0.000001 0.000005 1.658750 5.420650 -3.620960 12.994500 -0.242716 -4.980390 88.453100 4.920840 -72.525500 -5.348130 -0.000001 -0.000004 -66.533900 40.034600 -14.987500 -24.328900 0.000322 -0.000009 2.159950 7.563700 -15.996200 -22.291500 -0.000108 -0.000004 9.058850 5.395740 -2.799380 -2.192480 -6.469440 -0.000000 -175.441000 -8.689430 -1.835430 39.081100 -0.000007 -0.000012 -0.104872 0.245748 23.110100 40.985400 -0.000006 -0.000013 0.192329 3.851380 -66.772700 11.754300 -0.000000 0.000003 -0.000052 -0.000586 -16.600300 -2.192510 6.469440 -0.000001 179.396000 13.639200 -179.230000 -39.081100 -0.002282 -0.040193 -0.056709 0.170344 19.413100 -40.985400 0.000008 0.000006 2.878870 8.651560 -65.933200 -11.754300 -0.000006 -0.000006 -0.008575 -0.092665 -20.347100
